<svg xmlns="http://www.w3.org/2000/svg" width="36" height="79"><g fill="#008fdd"><path d="M15.8 21.5v-4.6h4.6v4.6zm.7 23.6a2.4 2.4 0 00-.7 1.6v8.6a2.4 2.4 0 00.7 1.6 2.2 2.2 0 003.2 0 2 2 0 00.7-1.6v-8.6a2 2 0 00-.7-1.6 2.2 2.2 0 00-3.2 0z"/><path d="M24.4 23.5a2 2 0 01-.6 1.4 1.7 1.7 0 01-1.4.6h-8.6a2.1 2.1 0 01-2-2v-6.6H0v37.3A17.9 17.9 0 005.3 67a17.3 17.3 0 0010.8 5.2V77a2 2 0 002 2 1.7 1.7 0 001.4-.6 1.7 1.7 0 00.6-1.4v-4.8A17.3 17.3 0 0030.9 67a17.9 17.9 0 005.3-12.8V16.9H24.4zm0 23.2v8.6a6.2 6.2 0 01-6.3 6.3 5.9 5.9 0 01-4.4-1.8 6.4 6.4 0 01-1.9-4.5v-8.6a6.1 6.1 0 011.9-4.4 6 6 0 014.4-1.9 6.4 6.4 0 014.5 1.9 6 6 0 011.8 4.4zM34.2 0a2 2 0 00-2 2v2.3h-2.4V2a2 2 0 00-4 0v2.3h-2.5V2a2 2 0 00-4 0v2.3h-2.4V2a2 2 0 10-4 0v2.3h-2.4V2a2 2 0 00-2.1-2 2 2 0 00-2 2v2.3H4V2a2 2 0 00-4 0v10.9h36.2V2a2 2 0 00-2-2z"/></g></svg>